<?xml version="1.0" encoding="UTF-8"?>
<svg id="Capa_1" data-name="Capa 1" xmlns="http://www.w3.org/2000/svg" viewBox="0 0 1000 1000">
  <defs>
    <style>
      .cls-1 {
        fill: #007da5;
      }

      .cls-2 {
        fill: #244289;
      }

      .cls-3 {
        fill: #092e6e;
      }

      .cls-4 {
        fill: #6bc4ea;
      }
    </style>
  </defs>
  <g>
    <path class="cls-2" d="m501.44,929.97c-2.51.1-5.03.29-7.54.29-103.67.01-207.33-.05-311,.08-13.26.02-26.91.42-39.22-3.84-12.06-4.18-23.37-11.12-33.71-19.24-22.4-17.59-34.37-41.13-40.01-68.38-.75-3.63-.11-7.55-.11-11.33-.01-107.21-.03-214.42-.03-321.63,0-2.01.19-4.02.29-6.03,110.74,0,221.48,0,332.22-.01,32.54,0,65.08-.1,97.62-.15.53.18,1.05.35,1.58.53-.03,143.24-.06,286.47-.09,429.71Z"/>
    <path class="cls-1" d="m499.96,499.74c-32.54.05-65.08.14-97.62.15-110.74.02-221.48.01-332.22.01-.1-2.51-.29-5.03-.29-7.54.03-107.97-.08-215.95.27-323.92.06-19.62,7.66-37.33,18.78-53.25,14.31-20.47,33.5-34.5,57.72-41.35,9.61-2.72,19.6-3.86,29.36-3.89,107.46-.34,214.92-.21,322.37-.21.5,0,1,.11,1.5.16.05,1.76.14,3.53.14,5.29,0,141.51,0,283.03-.01,424.54Z"/>
    <path class="cls-4" d="m499.96,499.74c0-141.51.01-283.03.01-424.54,0-1.76-.09-3.53-.14-5.29,43.64-.06,87.27-.16,130.91-.18,63.57-.03,127.13-.22,190.7.07,39.2.18,70.46,16.49,92.01,49.35,11.44,17.44,16.97,37,16.91,58.32-.29,106.96-.14,213.93-.16,320.89,0,.5-.11,1-.16,1.5-.51.12-1.01.24-1.52.36-1.76-.07-3.53-.2-5.29-.2-138.8,0-277.6,0-416.4,0-1.76,0-3.52.16-5.28.25-.53-.18-1.05-.35-1.58-.53Z"/>
    <path class="cls-3" d="m501.53,500.27c1.76-.09,3.52-.25,5.28-.25,138.8-.01,277.6-.01,416.4,0,1.76,0,3.53.13,5.29.2.51.39,1.02.77,1.52,1.16.12,2.26.33,4.52.33,6.78.02,103.18.05,206.37-.02,309.55-.01,21.37-3.8,41.74-15.25,60.44-16.75,27.37-40.95,43.55-71.92,50.45-7.19,1.6-14.42,1.64-21.65,1.64-105.19.05-210.38.04-315.57.03-1.5,0-3.01-.19-4.51-.3.03-143.24.06-286.47.09-429.71Z"/>
  </g>
  <path class="cls-2" d="m869.43,486.67c-.43-.32-.85-.65-1.28-.97.43-.1.85-.2,1.28-.3,0,.43,0,.85,0,1.28Z"/>
</svg>