<?xml version="1.0" standalone="no"?>
<!DOCTYPE svg PUBLIC "-//W3C//DTD SVG 20010904//EN"
 "http://www.w3.org/TR/2001/REC-SVG-20010904/DTD/svg10.dtd">
<svg version="1.0" xmlns="http://www.w3.org/2000/svg"
 width="512.000000pt" height="512.000000pt" viewBox="0 0 512.000000 512.000000"
 preserveAspectRatio="xMidYMid meet">

<g transform="translate(0.000000,512.000000) scale(0.100000,-0.100000)"
fill="#000000" stroke="none">
<path d="M361 5109 c-172 -34 -318 -182 -351 -358 -14 -74 -14 -4308 0 -4382
34 -180 179 -325 359 -359 74 -14 4308 -14 4382 0 180 34 325 179 359 359 14
74 14 4308 0 4382 -34 180 -179 325 -359 359 -67 12 -4325 12 -4390 -1z m4379
-309 c26 -13 47 -34 60 -60 19 -37 20 -58 20 -430 l0 -390 -2260 0 -2260 0 0
390 c0 372 1 393 20 430 12 24 35 47 58 59 36 20 66 20 2180 21 2128 0 2143 0
2182 -20z m80 -2780 c0 -1585 0 -1601 -20 -1640 -13 -26 -34 -47 -60 -60 -39
-20 -54 -20 -2180 -20 -2126 0 -2141 0 -2180 20 -26 13 -47 34 -60 60 -20 39
-20 55 -20 1640 l0 1600 2260 0 2260 0 0 -1600z"/>
<path d="M688 4499 c-43 -22 -78 -81 -78 -129 0 -50 35 -107 80 -130 35 -18
59 -20 220 -20 210 0 244 10 280 80 25 50 25 90 0 140 -36 71 -69 80 -282 80
-162 -1 -187 -3 -220 -21z"/>
<path d="M1588 4499 c-43 -22 -78 -81 -78 -129 0 -50 35 -107 80 -130 35 -18
59 -20 220 -20 161 0 185 2 220 20 45 23 80 80 80 130 0 50 -35 107 -80 130
-35 18 -58 20 -222 20 -162 -1 -187 -3 -220 -21z"/>
<path d="M2488 4499 c-43 -22 -78 -81 -78 -129 0 -50 35 -107 80 -130 35 -18
59 -20 220 -20 161 0 185 2 220 20 45 23 80 80 80 130 0 50 -35 107 -80 130
-35 18 -58 20 -222 20 -162 -1 -187 -3 -220 -21z"/>
<path d="M2788 2989 c-21 -10 -45 -34 -54 -52 -28 -53 -624 -1850 -624 -1880
0 -73 75 -147 150 -147 45 0 107 35 126 73 28 53 624 1850 624 1880 0 47 -36
105 -80 127 -49 25 -94 25 -142 -1z"/>
<path d="M1579 2681 c-57 -37 -632 -616 -653 -658 -24 -48 -20 -93 13 -144 37
-57 616 -632 658 -653 68 -34 153 -6 192 64 25 45 27 89 5 133 -9 18 -129 146
-267 285 l-251 252 251 253 c138 138 258 266 267 284 34 68 6 153 -64 192 -52
29 -97 27 -151 -8z"/>
<path d="M3389 2688 c-69 -39 -97 -124 -63 -191 9 -18 129 -146 267 -284 l251
-253 -251 -252 c-138 -139 -258 -267 -267 -285 -22 -44 -20 -88 5 -133 39 -70
124 -98 192 -64 42 21 621 596 658 653 18 29 29 58 29 81 0 23 -11 52 -29 81
-37 57 -616 632 -658 653 -43 22 -91 20 -134 -6z"/>
</g>
</svg>
