<?xml version="1.0" standalone="no"?>
<!DOCTYPE svg PUBLIC "-//W3C//DTD SVG 20010904//EN"
 "http://www.w3.org/TR/2001/REC-SVG-20010904/DTD/svg10.dtd">
<svg version="1.0" xmlns="http://www.w3.org/2000/svg"
 width="512.000000pt" height="512.000000pt" viewBox="0 0 512.000000 512.000000"
 preserveAspectRatio="xMidYMid meet">

<g transform="translate(0.000000,512.000000) scale(0.100000,-0.100000)"
fill="#000000" stroke="none">
<path d="M2081 4538 c-73 -5 -150 -15 -169 -21 -43 -14 -61 -51 -46 -94 15
-45 46 -53 149 -40 53 6 275 11 540 11 486 1 601 -7 905 -60 244 -42 458 -113
511 -170 22 -23 22 -24 3 -45 -57 -63 -283 -138 -554 -183 -259 -42 -392 -50
-855 -51 -487 0 -632 10 -915 61 -244 44 -454 116 -504 172 -19 22 -19 22 0
43 42 46 208 111 379 148 64 14 95 26 108 42 25 31 21 71 -8 99 -25 23 -27 24
-102 11 -189 -32 -390 -110 -469 -182 -66 -62 -74 -86 -74 -237 l0 -129 -137
-6 c-239 -11 -508 -55 -645 -107 -76 -28 -147 -77 -175 -119 l-23 -34 0 -1154
c0 -1257 -4 -1178 57 -1235 95 -90 422 -168 777 -186 l141 -7 6 -70 c6 -83 13
-98 74 -154 138 -127 528 -223 1060 -261 181 -13 709 -13 895 0 526 37 917
134 1055 261 61 56 68 71 74 154 l6 70 145 8 c117 6 150 11 170 26 34 25 39
82 10 111 -20 20 -28 21 -163 15 -78 -4 -148 -8 -155 -11 -10 -3 -12 40 -10
204 l3 207 135 7 c262 14 528 60 653 113 l37 15 -2 -197 -3 -197 -55 -28 c-30
-15 -85 -34 -121 -43 -75 -19 -102 -41 -102 -85 0 -33 17 -58 50 -71 46 -17
251 57 322 117 65 55 61 -30 61 1234 0 991 -2 1155 -15 1179 -56 109 -280 186
-660 226 -77 8 -177 15 -222 15 l-83 0 0 130 c0 87 -4 141 -14 163 -17 42 -91
109 -156 142 -179 91 -546 164 -975 195 -168 12 -727 11 -914 -2z m-890 -622
c190 -84 521 -147 924 -176 183 -13 707 -13 893 0 395 29 731 93 918 175 31
14 58 25 60 25 2 0 4 -134 4 -298 0 -297 0 -299 -22 -320 -61 -56 -225 -113
-453 -158 -142 -27 -168 -42 -168 -93 0 -45 28 -71 76 -71 94 0 383 72 506
126 29 13 55 24 57 24 2 0 4 -134 4 -298 0 -297 0 -299 -22 -319 -94 -86 -389
-164 -798 -210 -227 -26 -986 -26 -1215 0 -412 46 -708 123 -802 210 -23 20
-23 22 -23 320 0 236 3 298 13 294 325 -143 777 -209 1427 -208 400 1 523 10
552 39 27 26 28 75 2 103 -18 21 -24 21 -184 14 -234 -10 -642 -8 -816 5 -471
34 -864 124 -971 223 -23 20 -23 22 -23 319 0 164 2 298 4 298 2 0 28 -11 57
-24z m-211 -309 l0 -152 -127 7 c-294 16 -525 58 -645 119 -24 12 -45 23 -47
25 -20 18 160 82 301 109 120 22 316 43 426 44 l92 1 0 -153z m3580 123 c188
-27 400 -91 400 -119 0 -5 -30 -22 -67 -39 -129 -58 -339 -95 -625 -110 l-128
-7 0 154 0 154 140 -6 c78 -4 203 -16 280 -27z m-4225 -350 c127 -33 312 -58
505 -68 l135 -7 3 -205 2 -205 -141 7 c-265 15 -519 62 -629 117 l-55 28 -3
197 -2 196 37 -15 c21 -9 88 -29 148 -45z m4631 -325 c-7 -18 -108 -63 -191
-84 -113 -30 -329 -60 -494 -69 l-141 -7 2 205 3 205 135 7 c259 14 505 55
635 106 l50 20 3 -186 c1 -103 1 -191 -2 -197z m-4631 -235 c127 -33 312 -58
505 -68 l135 -7 3 -205 2 -205 -141 7 c-265 15 -519 62 -629 117 l-55 28 -3
197 -2 196 37 -15 c21 -9 88 -29 148 -45z m4631 -325 c-7 -18 -108 -63 -191
-84 -113 -30 -329 -60 -494 -69 l-141 -7 2 205 3 205 135 7 c259 14 505 55
635 106 l50 20 3 -186 c1 -103 1 -191 -2 -197z m-3775 -159 c195 -86 527 -148
943 -177 227 -15 860 -6 1056 15 345 38 578 92 783 181 16 7 17 -11 17 -292 0
-298 0 -300 -22 -320 -94 -86 -389 -164 -798 -210 -229 -26 -985 -26 -1220 0
-310 35 -557 89 -700 154 -130 59 -120 28 -120 375 0 164 2 298 4 298 2 0 28
-11 57 -24z m-856 -76 c128 -33 315 -58 505 -68 l135 -7 3 -207 c2 -164 0
-207 -10 -204 -7 3 -75 7 -150 10 -129 6 -139 5 -158 -14 -27 -27 -27 -83 2
-110 13 -11 37 -21 57 -21 20 -1 86 -4 146 -8 l110 -6 3 -205 2 -205 -137 7
c-265 15 -523 62 -633 116 l-55 27 -3 196 -2 195 87 -29 c48 -16 102 -29 121
-29 43 0 72 26 72 66 0 51 -22 72 -97 90 -38 10 -93 29 -123 44 l-55 27 -3
198 -2 197 37 -15 c21 -9 88 -29 148 -45z m4630 -328 c-8 -21 -109 -61 -219
-87 -130 -31 -295 -53 -469 -63 l-137 -7 2 205 3 205 135 7 c260 14 529 60
650 111 l35 15 3 -186 c1 -103 0 -192 -3 -200z m-3748 -396 c190 -79 515 -139
898 -166 181 -13 710 -13 890 0 405 29 733 92 924 176 29 13 55 24 57 24 2 0
4 -134 4 -298 0 -297 0 -299 -22 -319 -94 -86 -389 -164 -798 -210 -229 -26
-985 -26 -1220 0 -309 34 -557 89 -700 154 -130 59 -120 28 -120 376 0 235 3
298 13 294 6 -3 40 -17 74 -31z"/>
</g>
</svg>
