<?xml version="1.0" standalone="no"?>
<!DOCTYPE svg PUBLIC "-//W3C//DTD SVG 20010904//EN"
 "http://www.w3.org/TR/2001/REC-SVG-20010904/DTD/svg10.dtd">
<svg version="1.0" xmlns="http://www.w3.org/2000/svg"
 width="512.000000pt" height="512.000000pt" viewBox="0 0 512.000000 512.000000"
 preserveAspectRatio="xMidYMid meet">

<g transform="translate(0.000000,512.000000) scale(0.100000,-0.100000)"
fill="#000000" stroke="none">
<path d="M412 5100 c-97 -26 -173 -70 -248 -144 -76 -76 -119 -152 -145 -253
-19 -77 -19 -108 -17 -1129 l3 -1049 26 -67 c36 -92 80 -158 150 -223 66 -60
174 -117 257 -134 35 -7 270 -11 702 -11 l648 0 5 268 c3 215 7 280 22 332 21
77 80 207 123 270 35 51 30 58 -40 59 -88 2 -242 52 -335 110 l-45 28 -67 -38
c-89 -51 -199 -86 -310 -99 -104 -12 -135 -4 -160 41 -29 52 14 119 78 119 69
1 187 28 254 58 l68 31 -47 63 c-79 108 -138 245 -159 371 l-6 37 -72 0 c-75
1 -95 9 -115 47 -18 33 -14 59 12 90 l24 28 206 3 206 3 0 104 c0 122 9 151
51 169 40 17 75 10 99 -22 17 -21 20 -40 20 -138 l0 -113 206 -3 206 -3 24
-28 c31 -37 31 -81 -1 -112 -21 -22 -33 -25 -97 -25 l-74 0 -21 -94 c-26 -112
-77 -224 -143 -311 l-49 -65 37 -19 c61 -31 166 -60 246 -67 75 -7 89 -14 121
-59 13 -20 14 -20 42 6 71 66 177 123 303 165 83 27 91 28 358 32 l272 4 0
177 0 177 257 185 c156 111 267 197 280 218 14 21 23 49 23 73 0 81 -14 95
-299 298 l-268 191 -12 51 c-42 183 -186 332 -386 399 -32 11 -247 14 -1090
16 -1011 2 -1053 1 -1123 -17z"/>
<path d="M1344 3723 c3 -10 8 -31 11 -48 18 -82 74 -193 137 -269 l24 -28 35
43 c66 82 114 186 132 287 l7 32 -176 0 c-162 0 -175 -1 -170 -17z"/>
<path d="M2513 3016 c-198 -48 -371 -227 -412 -424 -7 -35 -11 -243 -11 -606
l0 -552 -257 -185 c-156 -111 -267 -197 -280 -218 -14 -21 -23 -49 -23 -73 0
-81 14 -95 299 -298 l268 -191 12 -51 c42 -183 186 -332 386 -399 32 -11 248
-14 1084 -17 1017 -3 1046 -2 1123 17 102 26 178 69 254 145 76 76 119 152
145 253 19 77 19 108 17 1129 l-3 1049 -26 67 c-36 92 -80 158 -150 223 -66
60 -174 117 -257 134 -81 17 -2099 14 -2169 -3z m1171 -926 c14 -5 32 -20 40
-32 26 -40 328 -1039 322 -1064 -9 -33 -68 -66 -122 -66 -55 -1 -67 10 -88 85
-9 31 -23 82 -32 112 l-15 55 -184 0 -184 0 -21 -72 c-42 -148 -53 -171 -82
-179 -58 -15 -150 26 -156 70 -2 13 67 253 153 534 115 375 163 518 180 536
38 39 119 48 189 21z"/>
<path d="M3587 1778 c-60 -210 -117 -416 -117 -426 0 -9 38 -12 135 -12 74 0
135 3 135 6 0 9 -132 478 -135 482 -2 2 -10 -20 -18 -50z"/>
</g>
</svg>
